Coordinates
version=1
nRows=9
nColumns=63
inDegrees=yes

Units are S.I. units (second, meters, Newtons, ...)
If the header above contains a line with 'inDegrees', this indicates whether rotational values are in degrees (yes) or radians (no).

endheader
time	pelvis_tilt	pelvis_list	pelvis_rotation	pelvis_tx	pelvis_ty	pelvis_tz	hip_flexion_r	hip_adduction_r	hip_rotation_r	knee_angle_r	knee_angle_r_beta	ankle_angle_r	subtalar_angle_r	mtp_angle_r	hip_flexion_l	hip_adduction_l	hip_rotation_l	knee_angle_l	knee_angle_l_beta	ankle_angle_l	subtalar_angle_l	mtp_angle_l	L5_S1_Flex_Ext	L5_S1_Lat_Bending	L5_S1_axial_rotation	L4_L5_Flex_Ext	L4_L5_Lat_Bending	L4_L5_axial_rotation	L3_L4_Flex_Ext	L3_L4_Lat_Bending	L3_L4_axial_rotation	L2_L3_Flex_Ext	L2_L3_Lat_Bending	L2_L3_axial_rotation	L1_L2_Flex_Ext	L1_L2_Lat_Bending	L1_L2_axial_rotation	L1_T12_Flex_Ext	L1_T12_Lat_Bending	L1_T12_axial_rotation	Abs_r3	Abs_r2	Abs_r1	Abs_t1	Abs_t2	neck_flexion	neck_bending	neck_rotation	arm_flex_r	arm_add_r	arm_rot_r	elbow_flex_r	pro_sup_r	wrist_flex_r	wrist_dev_r	arm_flex_l	arm_add_l	arm_rot_l	elbow_flex_l	pro_sup_l	wrist_flex_l	wrist_dev_l
      0.96666667	      6.03261701	      5.29011555	     95.17870118	      0.21757738	      0.98841929	      0.45390446	     -2.22393892	      6.26757387	     -7.96227629	      6.32504647	      0.11039289	     27.25702591	     -0.23694911	      0.00000000	     -4.96197903	     -7.13536945	      3.41665447	      1.20045074	      0.02095182	     23.92639930	      0.74944171	      0.00000000	     -0.05973210	      0.12711887	     -2.33439321	     -0.11092848	      0.16906809	     -2.48029278	     -0.09813387	      0.30907681	     -2.48029278	     -0.06826782	      0.30907681	     -2.04259406	     -0.05546723	      0.25922079	     -1.89669448	     -0.03413092	      0.19690712	     -1.75079491	     -0.42666042	      1.43799403	    -12.98319470	      0.00000000	      0.00000000	     17.03380671	     -3.44641425	      0.99317528	     42.83887787	    -12.68780853	     27.97259998	    128.28785181	     88.44695017	    -13.23537540	      3.71398180	     36.08323255	     -2.99913990	     17.10082808	    144.74109247	     87.43285172	     10.23750783	     31.56268482
      0.98333333	      6.37160535	      5.30434720	     94.76773320	      0.21717944	      0.98809816	      0.45386001	     -2.24348848	      6.52771284	     -8.61922790	      6.28361145	      0.10966971	     27.38217353	      1.10510620	      0.00000000	     -5.06882936	     -7.41448673	      2.98795057	      1.14007312	      0.01989803	     24.25104767	      1.03303931	      0.00000000	     -0.05103615	      0.20011407	     -2.35060368	     -0.09477924	      0.26615171	     -2.49751641	     -0.08384729	      0.48655734	     -2.49751641	     -0.05832922	      0.48655734	     -2.05677822	     -0.04739217	      0.40807261	     -1.90986549	     -0.02916206	      0.30997669	     -1.76295276	     -0.36454612	      2.26373036	    -13.07335246	      0.00000000	      0.00000000	     17.03784976	     -4.21156111	      2.61334213	     44.34444676	    -12.42280000	     28.79843524	    127.58828185	     88.43039572	    -13.28052548	      5.46362747	     35.56654701	     -3.41743215	     18.59813520	    144.18800410	     86.33134829	     -1.57847450	     31.63213043
      1.00000000	      6.51831282	      5.37926800	     94.35975790	      0.21699751	      0.98793612	      0.45377999	     -2.32948579	      6.61007455	     -8.99390109	      6.29464675	      0.10986231	     27.61624356	      2.21184922	      0.00000000	     -5.24102427	     -7.51606918	      1.76924358	      1.12828982	      0.01969237	     24.71854840	      2.43672705	      0.00000000	     -0.04783430	      0.23553477	     -2.33180258	     -0.08883307	      0.31326124	     -2.47754025	     -0.07858697	      0.57267923	     -2.47754025	     -0.05466982	      0.57267923	     -2.04032726	     -0.04441893	      0.48030249	     -1.89458960	     -0.02733252	      0.36484335	     -1.74885194	     -0.34167561	      2.66441638	    -12.96878643	      0.00000000	      0.00000000	     16.85338530	     -4.67982629	      3.24100031	     45.36522121	    -12.27182913	     29.35457994	    126.69977608	     88.45351187	    -13.37968335	      5.61691207	     35.26349705	     -3.18161232	     18.23742160	    143.59802955	     85.36698569	     -3.65295808	     31.41954088
      1.01666667	      6.60009618	      5.45192525	     94.15287345	      0.21692305	      0.98775518	      0.45342375	     -2.43866473	      6.71040161	     -8.68239769	      6.25265126	      0.10912935	     27.74054546	      2.11118502	      0.00000000	     -5.39114398	     -7.58865085	      0.69796072	      1.11301061	      0.01942570	     25.14765695	      3.86633845	      0.00000000	     -0.03777826	      0.25365986	     -2.36945390	     -0.07015801	      0.33736762	     -2.51754477	     -0.06206591	      0.61674859	     -2.51754477	     -0.04317678	      0.61674859	     -2.07327217	     -0.03508090	      0.51726319	     -1.92518130	     -0.02158650	      0.39291913	     -1.77709043	     -0.26984636	      2.86945112	    -13.17819178	      0.00000000	      0.00000000	     16.60443200	     -4.72403570	      3.89876784	     46.00034677	    -12.00407634	     29.91973069	    125.77472322	     88.54462031	    -13.70639747	      5.10391366	     35.07748794	     -3.28310520	     17.68555811	    143.56275112	     85.42074554	     -2.53011701	     30.68068812
      1.03333333	      6.63997025	      5.57408984	     93.81515288	      0.21720261	      0.98769069	      0.45294948	     -2.59710993	      6.77114251	     -8.23629290	      6.24480248	      0.10899236	     27.92800313	      2.04503999	      0.00000000	     -5.65206173	     -7.60684372	      0.47602371	      1.05465172	      0.01840714	     25.28128232	      3.88431919	      0.00000000	     -0.03483465	      0.25891646	     -2.36820314	     -0.06469143	      0.34435889	     -2.51621584	     -0.05722985	      0.62952947	     -2.51621584	     -0.03981252	      0.62952947	     -2.07217775	     -0.03234746	      0.52798244	     -1.92416505	     -0.01990452	      0.40106159	     -1.77615236	     -0.24882043	      2.92891475	    -13.17123541	      0.00000000	      0.00000000	     16.28683063	     -4.55400161	      4.39418667	     46.21062709	    -11.77266044	     30.26194897	    124.98197169	     88.64113607	    -14.08270395	      4.27617607	     35.08897344	     -3.42584483	     16.51640311	    143.77992427	     86.48907666	      3.40643263	     29.18536573
      1.05000000	      6.72218593	      5.65621444	     93.73307840	      0.21710540	      0.98755726	      0.45221852	     -2.71547654	      6.87664858	     -8.16933983	      6.24532155	      0.10900142	     28.17450737	      2.01629493	      0.00000000	     -5.81481864	     -7.68772480	      0.46123474	      1.03024110	      0.01798110	     25.39046575	      3.88054368	      0.00000000	     -0.02528114	      0.26304341	     -2.37677228	     -0.04694960	      0.34984774	     -2.52532055	     -0.04153438	      0.63956375	     -2.52532055	     -0.02889381	      0.63956375	     -2.07967574	     -0.02347606	      0.53639813	     -1.93112748	     -0.01444564	      0.40745425	     -1.78257921	     -0.18058064	      2.97559970	    -13.21889439	      0.00000000	      0.00000000	     16.13618980	     -4.45025843	      4.41845440	     45.98761253	    -11.78801250	     30.18635317	    124.70848122	     88.67645388	    -14.12033762	      4.22927200	     35.25913098	     -3.82155649	     17.12996624	    144.78936075	     86.56023877	      3.91990713	     28.89377970
      1.06666667	      6.56045797	      5.88153742	     93.47521138	      0.21791480	      0.98789454	      0.45193191	     -2.99663104	      6.81700276	     -7.01505252	      6.20450765	      0.10828909	     28.14209228	      0.78018359	      0.00000000	     -6.16548195	     -7.54124538	     -0.30599732	      0.98094353	      0.01712069	     25.31675424	      4.52819314	      0.00000000	     -0.03016092	      0.22406402	     -2.35051189	     -0.05601185	      0.29800515	     -2.49741888	     -0.04955138	      0.54478926	     -2.49741888	     -0.03447092	      0.54478926	     -2.05669790	     -0.02800743	      0.45691135	     -1.90979091	     -0.01723395	      0.34707517	     -1.76288392	     -0.21543646	      2.53465701	    -13.07284198	      0.00000000	      0.00000000	     15.52154367	     -3.39304987	      4.83797003	     45.24534372	    -11.61534869	     30.11798868	    123.98766255	     88.64289500	    -15.22515793	      2.21914518	     35.73599133	     -4.07662043	     15.18804199	    145.10131958	     87.75987288	     15.27867672	     25.60505534
      1.08333333	      6.65811043	      6.04583178	     93.39928777	      0.21767308	      0.98798771	      0.45136368	     -3.17834196	      6.92635845	     -7.02142513	      6.27063493	      0.10944323	     28.36872634	      0.70752888	      0.00000000	     -6.38583207	     -7.63358371	     -0.37643865	      1.00409045	      0.01752468	     25.26367784	      4.48686273	      0.00000000	     -0.03006711	      0.22775171	     -2.34921022	     -0.05583763	      0.30290977	     -2.49603586	     -0.04939726	      0.55375551	     -2.49603586	     -0.03436370	      0.55375551	     -2.05555894	     -0.02792032	      0.46443129	     -1.90873330	     -0.01718035	      0.35278740	     -1.76190766	     -0.21476638	      2.57637289	    -13.06560247	      0.00000000	      0.00000000	     15.38963732	     -3.26705092	      4.87239348	     44.56110873	    -11.95041839	     29.85845247	    123.85526166	     88.56761916	    -15.31270647	      2.09063758	     35.84373890	     -4.56319212	     15.98785912	    146.70758298	     87.80250491	     15.87442194	     25.36317381
      1.10000000	      6.45323035	      6.32303442	     93.02154522	      0.21844764	      0.98850116	      0.45128617	     -3.45327555	      6.74611845	     -6.44479499	      6.38768299	      0.11148610	     28.41828981	      0.23619213	      0.00000000	     -6.81803420	     -7.40664583	     -0.65448003	      0.93342109	      0.01629127	     24.85802131	      4.23142010	      0.00000000	     -0.03941408	      0.16681902	     -2.20838557	     -0.07319589	      0.22186930	     -2.34640967	     -0.06475340	      0.40560377	     -2.34640967	     -0.04504636	      0.40560377	     -1.93233737	     -0.03659992	      0.34017735	     -1.79431328	     -0.02252121	      0.25840267	     -1.65628918	     -0.28153085	      1.88709016	    -12.28237802	      0.00000000	      0.00000000	     14.87557477	     -2.03735754	      3.91579714	     43.09741436	    -12.26829232	     28.95914209	    123.36857713	     88.30510079	    -15.97262958	     -0.40858126	     36.71469595	     -4.34961545	     15.60020504	    147.84368720	     88.18904664	     23.36027312	     25.90720465
